<svg width="920" height="980" viewBox="0 0 920 980" fill="none" xmlns="http://www.w3.org/2000/svg">
<path d="M560.31 0.959961C520.25 5.55994 491.89 12.46 462.94 24.34C359.44 66.51 286.41 155.25 262.07 268.14C258.24 285.2 257.66 294.02 257.66 330.24C257.47 366.85 258.04 375.28 261.88 394.07C272.62 447.16 293.9 493.93 326.67 536.48L334.91 547.21L307.31 578.07C280.28 608.16 279.33 608.93 270.32 610.08C237.54 614.68 242.34 610.27 119.67 747.32C39.9399 836.44 9.83989 871.32 5.81989 879.18C1.21989 888.76 0.639893 892.02 0.639893 909.08C0.639893 926.33 1.21989 929.4 6.19989 939.56C13.6699 954.7 25.7499 966.39 41.4699 973.87C52.9699 979.24 56.2299 980 71.5599 980C87.2799 980 90.1499 979.42 101.27 973.87C108.55 970.23 117.75 963.52 123.5 957.58C129.06 952.02 178.51 897.01 233.71 835.3C346.03 709.37 344.88 711.1 345.84 683.5L346.61 668.36L371.72 640.19C385.71 624.67 398.17 610.86 399.32 609.52C401.24 607.41 404.11 608.37 414.85 615.08C445.52 634.05 483.08 648.62 523.14 657.44C540.77 661.27 548.44 661.66 588.12 661.66C627.8 661.66 635.46 661.28 653.29 657.44C796.85 626.2 900.16 513.69 917.98 368.79C920.66 345.6 919.32 298.83 915.1 274.68C888.84 127.86 771.16 18.23 621.66 1.54999C605.36 -0.190002 572.96 -0.570068 560.31 0.959961ZM613.21 62.87C701.38 71.69 778.24 121.33 822.51 198C847.43 240.74 860.46 295.75 857.78 345.01C850.69 468.82 763.87 569.83 641.77 596.66C620.3 601.26 572.39 602.41 548.81 598.77C489.4 589.76 439.56 564.46 397.21 522.11C357.73 482.43 333.39 437.01 322.27 381.62C317.48 358.05 317.48 303.99 322.27 281.38C338.95 202.22 384.75 138.01 452.99 97.7599C485.76 78.59 519.88 67.86 567.99 62.3C579.87 60.76 594.05 60.95 613.21 62.87Z" fill="white"/>
</svg>
